<svg aria-hidden="true" style="position: absolute; width: 0; height: 0; overflow: hidden;" version="1.1" xmlns="http://www.w3.org/2000/svg" xmlns:xlink="http://www.w3.org/1999/xlink">
<defs>
<symbol id="icon-beach" viewBox="0 0 32 32">
<path fill="#6d86a4" style="fill: var(--color1, #6d86a4)" d="M18.141 20.255c0 2.944 2.386 5.33 5.33 5.33s5.33-2.386 5.33-5.33c0-2.943-2.386-5.329-5.33-5.329-2.942 0.003-5.326 2.387-5.33 5.329zM23.471 15.991c2.355 0 4.264 1.909 4.264 4.264s-1.909 4.264-4.264 4.264c-2.355 0-4.264-1.909-4.264-4.264 0.003-2.354 1.91-4.261 4.264-4.264z"></path>
<path fill="#6d86a4" style="fill: var(--color1, #6d86a4)" d="M20.425 30.915h6.091v1.066h-6.091v-1.066z"></path>
<path fill="#6d86a4" style="fill: var(--color1, #6d86a4)" d="M18.141 28.782h10.659v1.066h-10.659v-1.066z"></path>
<path fill="#6d86a4" style="fill: var(--color1, #6d86a4)" d="M6.416 28.782h1.066v1.066h-1.066v-1.066z"></path>
<path fill="#6d86a4" style="fill: var(--color1, #6d86a4)" d="M3.218 29.849h1.066v1.066h-1.066v-1.066z"></path>
<path fill="#6d86a4" style="fill: var(--color1, #6d86a4)" d="M6.469 25.783c2.783-4.847 4.529-10.219 5.128-15.776l4.957 4.927c0.099 0.099 0.233 0.154 0.373 0.155 0.029 0 0.058-0.002 0.086-0.007 0.169-0.028 0.314-0.135 0.391-0.288 1.005-2.005 0.611-4.429-0.976-6.014l-0.436-0.436h3.749c0.294 0 0.533-0.238 0.533-0.533 0-0.058-0.009-0.115-0.027-0.169-0.708-2.129-2.7-3.564-4.943-3.562h-0.693l2.662-2.677c0.208-0.209 0.207-0.546-0.002-0.754-0.040-0.040-0.087-0.074-0.138-0.099-2.006-1.006-4.431-0.613-6.017 0.976l-0.509 0.509c-0.166 0.167-0.32 0.345-0.462 0.533-0.14-0.188-0.293-0.366-0.458-0.533l-0.509-0.509c-1.584-1.587-4.008-1.981-6.013-0.976-0.263 0.132-0.37 0.452-0.239 0.715 0.025 0.051 0.059 0.097 0.099 0.138l2.665 2.677h-0.7c-2.243-0.002-4.235 1.433-4.943 3.562-0.093 0.279 0.057 0.581 0.337 0.674 0.054 0.018 0.112 0.028 0.169 0.028h3.745l-0.436 0.436c-1.588 1.584-1.981 4.008-0.977 6.014 0.077 0.153 0.222 0.26 0.391 0.288 0.029 0.005 0.057 0.007 0.086 0.007 0.141 0 0.276-0.056 0.376-0.155l4.616-4.588c-0.572 5.107-2.495 9.969-5.572 14.085-0.716-0.188-1.443-0.336-2.175-0.443l-0.333-0.033-0.107 1.061 0.311 0.030c0.533 0.076 1.063 0.184 1.589 0.306-0.107 0.134-0.213 0.27-0.324 0.401l0.817 0.684c4.096-4.87 6.537-10.915 6.972-17.263l0.613-0.61 0.459 0.457c-0.56 6.789-2.891 13.313-6.759 18.92l0.873 0.611c0.419-0.598 0.819-1.219 1.206-1.852 2.493 1.193 4.694 2.917 6.449 5.052l0.824-0.675c-1.037-1.261-2.226-2.39-3.539-3.361h22.338v-1.066h-23.917c-0.522-0.315-1.062-0.601-1.612-0.867zM16.731 13.607l-5.631-5.599c1.44-0.43 3.001-0.040 4.069 1.018l0.509 0.509c1.066 1.064 1.47 2.624 1.054 4.072zM18.927 7.28h-4.413c-1.028-0.489-2.187-0.628-3.301-0.394 0.776-1.091 2.031-1.738 3.369-1.738h0.719c1.507-0.002 2.895 0.814 3.626 2.132zM11.358 2.791l0.509-0.509c1.065-1.066 2.625-1.47 4.074-1.054l-3.159 3.178c-1.025 0.377-1.906 1.068-2.516 1.975-0.248-1.304 0.161-2.646 1.094-3.59h-0.002zM8.422 2.282l0.509 0.509c0.237 0.242 0.443 0.514 0.613 0.807-0.241 0.561-0.379 1.162-0.407 1.772-0.478-0.418-1.029-0.744-1.625-0.964l-3.16-3.178c1.448-0.416 3.008-0.012 4.072 1.054h-0.002zM4.988 5.148h0.72c1.339-0.001 2.596 0.646 3.373 1.737-1.113-0.233-2.272-0.094-3.3 0.395h-4.415c0.73-1.317 2.118-2.133 3.624-2.132h-0.002zM3.562 13.607c-0.416-1.448-0.012-3.007 1.054-4.072l0.509-0.509c0.767-0.765 1.807-1.193 2.89-1.189 0.4 0 0.797 0.057 1.181 0.169l-5.634 5.601z"></path>
</symbol>
<symbol id="icon-parking" viewBox="0 0 32 32">
<path fill="#6d86a4" style="fill: var(--color1, #6d86a4)" d="M26.84 0h-21.681c-2.845 0-5.16 2.315-5.16 5.16v21.681c0 2.845 2.315 5.16 5.16 5.16h21.681c2.845 0 5.16-2.315 5.16-5.16v-21.681c0-2.845-2.315-5.16-5.16-5.16zM30.11 26.84c0 1.803-1.467 3.27-3.27 3.27h-21.681c-1.803 0-3.27-1.467-3.27-3.27v-21.681c0-1.803 1.467-3.27 3.27-3.27h21.681c1.803 0 3.27 1.467 3.27 3.27v21.681z"></path>
<path fill="#6d86a4" style="fill: var(--color1, #6d86a4)" d="M16.661 5.26h-4.519c-1.737 0-3.15 1.413-3.15 3.15v17.385c0 0.522 0.423 0.945 0.945 0.945h4.409c0.522 0 0.945-0.423 0.945-0.945v-5.322h1.37c4.194 0 7.606-3.412 7.606-7.606s-3.412-7.606-7.606-7.606zM16.661 18.583h-2.315c-0.522 0-0.945 0.423-0.945 0.945v5.322h-2.52v-16.44c0-0.695 0.565-1.26 1.26-1.26h4.519c3.152 0 5.716 2.564 5.716 5.716s-2.564 5.716-5.716 5.716z"></path>
<path fill="#6d86a4" style="fill: var(--color1, #6d86a4)" d="M16.661 9.669h-2.315c-0.522 0-0.945 0.423-0.945 0.945v4.503c0 0.522 0.423 0.945 0.945 0.945h2.315c1.763 0 3.197-1.434 3.197-3.197s-1.434-3.197-3.197-3.197zM16.661 14.173h-1.37v-2.614h1.37c0.721 0 1.307 0.586 1.307 1.307s-0.586 1.307-1.307 1.307z"></path>
</symbol>
<symbol id="icon-person" viewBox="0 0 32 32">
<path fill="#6d86a4" style="fill: var(--color1, #6d86a4)" d="M27.314 20.686c-1.743-1.743-3.817-3.033-6.080-3.814 2.424-1.669 4.016-4.463 4.016-7.623 0-5.1-4.15-9.25-9.25-9.25s-9.25 4.15-9.25 9.25c0 3.159 1.592 5.953 4.016 7.623-2.263 0.781-4.337 2.071-6.080 3.814-3.022 3.022-4.686 7.040-4.686 11.314h2.5c0-7.444 6.056-13.5 13.5-13.5s13.5 6.056 13.5 13.5h2.5c0-4.274-1.664-8.292-4.686-11.314zM16 16c-3.722 0-6.75-3.028-6.75-6.75s3.028-6.75 6.75-6.75c3.722 0 6.75 3.028 6.75 6.75s-3.028 6.75-6.75 6.75z"></path>
</symbol>
<symbol id="icon-pool" viewBox="0 0 32 32">
<path fill="#6d86a4" style="fill: var(--color1, #6d86a4)" d="M31.531 19.289c-0.189 0-0.366 0.008-0.533 0.022v-7.569c0-0.259-0.21-0.469-0.469-0.469h-5.511c-0.259 0-0.469 0.21-0.469 0.469s0.21 0.469 0.469 0.469h5.042v7.27c-0.558 0.161-0.971 0.401-1.354 0.623-0.636 0.369-1.186 0.688-2.354 0.688s-1.718-0.319-2.354-0.688c-0.658-0.382-1.404-0.815-2.825-0.815-0.71 0-1.251 0.108-1.698 0.264v-7.343h3.539c0.259 0 0.469-0.21 0.469-0.469s-0.21-0.469-0.469-0.469h-0.533v-4.040c0-1.087-0.884-1.972-1.972-1.972s-1.972 0.885-1.972 1.972v4.040h-3.071v-4.040c0-1.087-0.885-1.972-1.972-1.972s-1.972 0.885-1.972 1.972v4.040h-10.053c-0.259 0-0.469 0.21-0.469 0.469v7.57c-0.167-0.014-0.344-0.022-0.533-0.022-0.259 0-0.469 0.21-0.469 0.469s0.21 0.469 0.469 0.469c1.167 0 1.716 0.319 2.352 0.688 0.658 0.382 1.403 0.815 2.823 0.815s2.166-0.433 2.823-0.815c0.636-0.369 1.185-0.688 2.352-0.688s1.717 0.319 2.353 0.688c0.658 0.382 1.404 0.815 2.824 0.815s2.166-0.433 2.823-0.815c0.636-0.369 1.185-0.688 2.353-0.688s1.718 0.319 2.354 0.688c0.658 0.382 1.404 0.815 2.825 0.815s2.167-0.433 2.825-0.815c0.636-0.369 1.186-0.688 2.354-0.688 0.259 0 0.469-0.21 0.469-0.469s-0.21-0.469-0.469-0.469zM11.523 19.328c-0.215-0.025-0.449-0.039-0.704-0.039-1.42 0-2.166 0.433-2.823 0.815-0.636 0.369-1.185 0.688-2.352 0.688s-1.716-0.319-2.352-0.688c-0.382-0.222-0.795-0.461-1.352-0.623v-7.271h9.584v7.118zM12.461 7.232h0c0-0.57 0.464-1.034 1.034-1.034s1.034 0.464 1.034 1.034v4.040h-2.069v-4.040zM18.537 19.995c-0.064 0.036-0.126 0.073-0.188 0.109-0.636 0.369-1.185 0.688-2.353 0.688s-1.717-0.319-2.353-0.688c-0.343-0.199-0.709-0.411-1.182-0.57v-1.312h6.077v1.773zM18.537 17.285h-6.077v-2.069h6.077v2.069zM18.537 14.279h-6.077v-2.069h6.077v2.069zM19.475 7.232c0-0.57 0.464-1.034 1.034-1.034s1.034 0.464 1.034 1.034v4.040h-2.069v-4.040z"></path>
<path fill="#6d86a4" style="fill: var(--color1, #6d86a4)" d="M31.531 21.794c-0.397 0-0.755 0.032-1.092 0.099-0.254 0.050-0.419 0.297-0.369 0.551 0.044 0.223 0.24 0.378 0.459 0.378 0.030 0 0.061-0.003 0.091-0.009 0.277-0.055 0.575-0.081 0.911-0.081 0.259 0 0.469-0.21 0.469-0.469s-0.21-0.469-0.469-0.469z"></path>
<path fill="#6d86a4" style="fill: var(--color1, #6d86a4)" d="M28.91 23.047c-0.12-0.229-0.404-0.318-0.633-0.198-0.444 0.232-0.984 0.447-1.925 0.447-1.169 0-1.718-0.319-2.354-0.688-0.658-0.382-1.404-0.815-2.825-0.815s-2.166 0.433-2.823 0.815c-0.636 0.369-1.185 0.688-2.353 0.688s-1.717-0.319-2.353-0.688c-0.658-0.382-1.403-0.815-2.824-0.815s-2.166 0.433-2.823 0.815c-0.636 0.369-1.185 0.688-2.352 0.688s-1.716-0.319-2.352-0.688c-0.658-0.382-1.403-0.815-2.823-0.815-0.259 0-0.469 0.21-0.469 0.469s0.21 0.469 0.469 0.469c1.167 0 1.716 0.319 2.352 0.688 0.658 0.382 1.403 0.815 2.823 0.815s2.166-0.433 2.823-0.815c0.636-0.369 1.185-0.688 2.352-0.688s1.717 0.319 2.353 0.688c0.658 0.382 1.404 0.815 2.824 0.815s2.166-0.433 2.823-0.815c0.636-0.369 1.185-0.688 2.353-0.688s1.718 0.319 2.354 0.688c0.658 0.382 1.404 0.815 2.825 0.815 1.147 0 1.837-0.28 2.36-0.554 0.229-0.12 0.318-0.404 0.198-0.633z"></path>
<path fill="#6d86a4" style="fill: var(--color1, #6d86a4)" d="M31.531 24.299c-1.421 0-2.167 0.433-2.825 0.815-0.636 0.369-1.186 0.688-2.354 0.688s-1.718-0.319-2.354-0.688c-0.658-0.382-1.404-0.815-2.825-0.815s-2.166 0.433-2.823 0.815c-0.636 0.369-1.185 0.688-2.353 0.688s-1.717-0.319-2.353-0.688c-0.658-0.382-1.403-0.815-2.824-0.815s-2.166 0.433-2.823 0.815c-0.636 0.369-1.185 0.688-2.352 0.688-0.95 0-1.498-0.222-1.949-0.461-0.229-0.121-0.512-0.034-0.634 0.194s-0.034 0.512 0.194 0.634c0.531 0.282 1.231 0.57 2.389 0.57 1.42 0 2.166-0.433 2.823-0.815 0.636-0.369 1.185-0.688 2.352-0.688s1.717 0.319 2.353 0.688c0.658 0.382 1.404 0.815 2.824 0.815s2.166-0.433 2.823-0.815c0.636-0.369 1.185-0.688 2.353-0.688 1.169 0 1.718 0.319 2.354 0.688 0.658 0.382 1.404 0.815 2.825 0.815s2.167-0.433 2.825-0.815c0.636-0.369 1.186-0.688 2.354-0.688 0.259 0 0.469-0.21 0.469-0.469s-0.21-0.469-0.469-0.469z"></path>
<path fill="#6d86a4" style="fill: var(--color1, #6d86a4)" d="M1.562 24.398c-0.338-0.067-0.695-0.099-1.093-0.099-0.259 0-0.469 0.21-0.469 0.469s0.21 0.469 0.469 0.469c0.336 0 0.634 0.027 0.911 0.081 0.031 0.006 0.061 0.009 0.091 0.009 0.219 0 0.415-0.155 0.459-0.378 0.050-0.254-0.115-0.501-0.369-0.551z"></path>
</symbol>
<symbol id="icon-sleep" viewBox="0 0 46 32">
<path fill="#6d86a4" style="fill: var(--color1, #6d86a4)" d="M44.286 23.857h-0.714v-5.714c-0.001-0.757-0.302-1.484-0.838-2.019s-1.262-0.837-2.019-0.838v-12.143c-0.001-0.757-0.302-1.484-0.838-2.019s-1.262-0.837-2.019-0.838h-30c-0.757 0.001-1.484 0.302-2.019 0.838s-0.837 1.262-0.838 2.019v12.143c-0.757 0.001-1.484 0.302-2.019 0.838s-0.837 1.262-0.838 2.019v5.714h-0.714c-0.189 0-0.371 0.075-0.505 0.209s-0.209 0.316-0.209 0.505v2.857c0 0.189 0.075 0.371 0.209 0.505s0.316 0.209 0.505 0.209h0.714v2.857c0 0.189 0.075 0.371 0.209 0.505s0.316 0.209 0.505 0.209h2.143c0.165 0 0.325-0.057 0.453-0.162s0.215-0.25 0.247-0.412l0.6-2.997h33.114l0.6 2.997c0.032 0.162 0.12 0.308 0.247 0.412s0.288 0.162 0.453 0.162h2.143c0.19 0 0.371-0.075 0.505-0.209s0.209-0.316 0.209-0.505v-2.857h0.714c0.19 0 0.371-0.075 0.505-0.209s0.209-0.316 0.209-0.505v-2.857c0-0.189-0.075-0.371-0.209-0.505s-0.316-0.209-0.505-0.209zM6.429 3.143c0-0.379 0.151-0.742 0.419-1.010s0.631-0.418 1.010-0.419h30c0.379 0 0.742 0.151 1.010 0.419s0.419 0.631 0.419 1.010v12.143h-1.429v-2.857c-0.001-0.757-0.302-1.484-0.838-2.019s-1.262-0.837-2.019-0.838h-8.571c-0.758 0.001-1.484 0.302-2.019 0.838s-0.837 1.262-0.838 2.019v2.857h-1.429v-2.857c-0.001-0.757-0.302-1.484-0.838-2.019s-1.262-0.837-2.019-0.838h-8.571c-0.757 0.001-1.484 0.302-2.019 0.838s-0.837 1.262-0.838 2.019v2.857h-1.429v-12.143zM36.429 12.429v2.857h-11.429v-2.857c0-0.379 0.151-0.742 0.419-1.010s0.631-0.418 1.010-0.419h8.571c0.379 0.001 0.742 0.151 1.010 0.419s0.419 0.631 0.419 1.010zM20.714 12.429v2.857h-11.429v-2.857c0.001-0.379 0.151-0.742 0.419-1.010s0.631-0.418 1.010-0.419h8.571c0.379 0.001 0.742 0.151 1.010 0.419s0.418 0.631 0.419 1.010zM3.571 18.143c0.001-0.379 0.151-0.742 0.419-1.010s0.631-0.418 1.010-0.419h35.714c0.379 0 0.742 0.151 1.010 0.419s0.419 0.631 0.419 1.010v5.714h-38.571v-5.714zM4.414 30.286h-0.843v-2.143h1.271l-0.429 2.143zM42.143 30.286h-0.843l-0.429-2.143h1.271v2.143zM43.571 26.714h-41.429v-1.429h41.429v1.429z"></path>
</symbol>
<symbol id="icon-wifi" viewBox="0 0 32 32">
<path fill="#6d86a4" style="fill: var(--color1, #6d86a4)" d="M15.938 29.156c1.139 0 2.063-0.923 2.063-2.062s-0.923-2.063-2.063-2.063-2.063 0.923-2.063 2.063c0 1.139 0.923 2.062 2.063 2.062z"></path>
<path fill="#6d86a4" style="fill: var(--color1, #6d86a4)" d="M31.665 9.679c-4.108-4.408-9.671-6.835-15.665-6.835s-11.556 2.428-15.664 6.835c-0.471 0.505-0.443 1.296 0.062 1.767s1.296 0.443 1.767-0.062c3.63-3.895 8.543-6.040 13.836-6.040s10.205 2.145 13.835 6.040c0.246 0.264 0.58 0.398 0.915 0.398 0.305 0 0.611-0.111 0.852-0.336 0.505-0.471 0.533-1.262 0.062-1.767z"></path>
<path fill="#6d86a4" style="fill: var(--color1, #6d86a4)" d="M27.075 14.841c-3.037-3.060-6.97-4.745-11.075-4.744s-8.039 1.685-11.075 4.745c-0.486 0.49-0.483 1.281 0.007 1.768s1.282 0.483 1.768-0.007c2.563-2.583 5.866-4.005 9.3-4.005s6.736 1.422 9.3 4.006c0.244 0.246 0.566 0.369 0.887 0.369 0.318 0 0.637-0.121 0.881-0.363 0.49-0.486 0.493-1.278 0.007-1.768z"></path>
<path fill="#6d86a4" style="fill: var(--color1, #6d86a4)" d="M22.072 20.018c-1.626-1.611-3.957-2.612-6.084-2.612-0 0-0.001 0-0.001 0h-0.090c-0 0-0.001 0-0.001 0-2.126 0-4.458 1.001-6.084 2.612-0.49 0.486-0.494 1.277-0.008 1.768 0.244 0.247 0.566 0.37 0.888 0.37 0.318 0 0.636-0.121 0.88-0.362 1.158-1.147 2.855-1.888 4.325-1.888 0 0 0 0 0.001 0h0.090c0 0 0 0 0.001 0 1.469 0 3.167 0.741 4.324 1.888 0.49 0.486 1.282 0.482 1.768-0.008s0.482-1.282-0.008-1.768z"></path>
</symbol>
</defs>
</svg>
