<svg width="865" height="515" viewBox="0 0 865 515" fill="none" xmlns="http://www.w3.org/2000/svg">
<path opacity="0.2" d="M789 90.3597C789 90.3597 565.433 176.271 622.308 244.221C655.757 284.184 721.93 233.772 751.62 276.613C785.788 325.912 747.272 376.031 713.231 425.412C627 550.5 498 528 413.185 451.731C340.161 386.065 384.021 253.223 270.738 244.221C161 235.5 253.353 75.9158 174.764 26.5884C116.745 -9.82826 1 3.30676 1 3.30676" stroke="#6D86A4" stroke-dasharray="10 10"/>
<g clip-path="url(#clip0)">
<path d="M862.976 48.8117C862.391 48.3172 861.691 48.0522 860.796 48.0051C859.234 48.0261 857.867 48.4032 856.534 49.1134C855.374 49.7664 854.029 50.5569 852.501 51.485C851.777 51.9548 851.053 52.4246 850.329 52.8945C849.87 53.2383 849.421 53.5018 848.962 53.8457C848.513 54.1092 848.169 54.2236 847.698 54.0737C847.469 53.9586 847.159 53.8319 846.849 53.7052L832.633 45.9135C832.174 45.6833 831.715 45.4531 831.176 45.2112C830.097 44.7276 829.247 44.9332 828.707 45.2655C827.73 45.7809 826.891 46.4802 826.282 47.2947C825.592 48.0975 825.613 49.085 826.313 49.9241C826.588 50.2919 826.874 50.5793 827.092 50.7748C829.546 53.0973 832.093 55.3511 834.547 57.6736C835.487 58.5475 836.359 59.3294 836.955 60.3176C837.081 60.5818 837.218 60.7657 837.344 61.03L831.402 65.2592C830.759 65.7406 830.127 66.1417 829.483 66.6231C829.403 66.6115 829.334 66.5196 829.254 66.508L828.428 65.9787C827.751 65.553 827.166 65.0585 826.489 64.6328C825.663 64.1036 824.687 64.0449 823.871 64.5835C823.423 64.847 822.963 65.1909 822.503 65.5348C821.676 66.1537 821.468 67.0261 821.995 67.9224C822.121 68.1866 822.259 68.3705 822.396 68.5544L823.645 70.7032C825.077 73.2885 826.589 75.8854 828.113 78.4019C828.308 78.7581 828.514 79.0339 828.812 79.241C829.111 79.4481 829.696 79.9425 830.534 79.8173C831.545 79.6349 832.36 79.0963 832.821 78.1783C833.258 77.4211 833.466 76.5487 833.284 75.5381L833.227 74.7917C833.159 74.1256 833.091 73.4596 833.023 72.7935C835.436 71.4188 837.837 70.1244 840.17 68.7381L841.331 68.0851L841.514 68.5217C841.949 69.4867 842.304 70.4402 842.486 71.4508L844.815 81.4662C844.975 82.0635 845.055 82.6492 845.227 83.1661C845.501 84.108 846.074 84.6828 846.878 84.7986C847.199 84.845 847.532 84.811 847.877 84.6966C848.13 84.651 848.382 84.6054 848.566 84.4678C849.945 84.0103 850.876 83.2422 851.371 82.0832C851.751 81.1536 851.798 80.2581 851.81 79.6036L851.909 65.2627C851.911 64.1145 851.924 62.8859 851.925 61.7377C851.926 61.1636 852.133 60.8653 852.581 60.6018L854.477 59.3987C856.006 58.4706 857.454 57.5309 858.982 56.6028C860.246 55.8007 861.097 55.021 861.879 54.1494C862.465 53.4957 863.075 52.6813 863.455 51.7517C864.007 50.765 863.768 49.582 862.976 48.8117ZM861.974 51.2101C861.617 51.979 861.111 52.6443 860.617 53.2292C860.019 53.9633 859.18 54.6626 858.099 55.3272C856.651 56.2669 855.123 57.1949 853.595 58.123L851.791 59.2574C850.814 59.7728 850.273 60.6792 850.272 61.8274C850.27 62.9756 850.269 64.1238 850.256 65.3524L850.157 79.6934C850.121 80.5085 850.04 81.0711 849.81 81.53C849.465 82.2185 848.901 82.7115 848.04 82.9975C847.868 83.0547 847.695 83.1118 847.443 83.1574C846.937 83.2486 846.788 83.1451 846.685 82.7201C846.514 82.2032 846.434 81.6175 846.274 81.0203L844.106 71.0281C843.854 69.9255 843.431 68.8801 843.007 67.8347L842.641 66.9615L842.068 65.8126L839.311 67.3017C836.817 68.6649 834.313 70.1084 831.9 71.4831C831.279 71.8038 831.29 72.2976 831.324 72.6306C831.38 73.377 831.517 74.135 831.574 74.8814L831.63 75.6278C831.698 76.2938 831.617 76.8563 831.306 77.3038C830.996 77.7511 830.628 78.0262 830.042 78.1059C830.042 78.1059 829.882 78.0827 829.664 77.8872C829.515 77.7837 829.377 77.5998 829.32 77.4275C827.808 74.8306 826.364 72.3256 824.932 69.7403L823.683 67.5916C823.546 67.4077 823.489 67.2354 823.363 66.9711C823.294 66.8792 823.305 66.7988 823.305 66.7988C823.305 66.7988 823.397 66.7301 823.489 66.6613C823.857 66.3862 824.317 66.0423 824.673 65.8476C824.949 65.6413 825.27 65.6876 825.569 65.8947C826.246 66.3204 826.842 66.7345 827.507 67.2406L828.333 67.7698C828.483 67.8733 828.632 67.9769 828.781 68.0804C829.148 68.3794 829.642 68.3686 830.09 68.1051C830.825 67.5549 831.549 67.085 832.285 66.5348L838.583 62.1109L839.318 61.5607L838.998 60.9403C838.94 60.7679 838.872 60.676 838.814 60.5037C838.62 60.1475 838.505 59.8029 838.299 59.5271C837.566 58.3549 836.637 57.4007 835.616 56.5153C833.15 54.2731 830.616 51.939 828.162 49.6165C827.944 49.421 827.726 49.2255 827.519 48.9497C827.313 48.6738 827.325 48.5935 827.509 48.4559C828.015 47.7906 828.75 47.2404 829.555 46.7822C829.738 46.6446 829.991 46.599 830.53 46.8409C831.07 47.0827 831.529 47.3129 831.907 47.5316L846.124 55.3232C846.502 55.5419 846.892 55.6802 847.202 55.8069C848.063 56.095 848.982 55.9814 849.798 55.4428C850.257 55.0989 850.706 54.8354 851.165 54.4915C851.889 54.0217 852.613 53.5519 853.337 53.0821C854.866 52.154 856.13 51.3519 857.29 50.6989C858.359 50.1147 859.553 49.7947 860.782 49.8078C861.195 49.7854 861.505 49.9121 861.803 50.1191C862.113 50.2458 862.204 50.7511 861.974 51.2101Z" fill="#6D86A4"/>
<path d="M822.596 73.9969C822.401 73.6407 821.85 73.4793 821.494 73.674L799.375 85.9887C799.019 86.1834 798.857 86.7343 799.052 87.0905C799.178 87.3548 799.408 87.4699 799.649 87.5047C799.809 87.5278 799.982 87.4706 800.154 87.4134L822.273 75.0988C822.709 74.9156 822.779 74.4335 822.596 73.9969Z" fill="#6D86A4"/>
<path d="M824.703 78.1562C824.428 77.7884 823.958 77.6385 823.521 77.8217L810.043 85.3939C809.687 85.5887 809.525 86.1396 809.72 86.4958C809.846 86.7601 810.075 86.8752 810.316 86.9099C810.477 86.9331 810.649 86.8759 810.822 86.8187L824.38 79.258C824.736 79.0633 824.898 78.5124 824.703 78.1562Z" fill="#6D86A4"/>
<path d="M808.835 86.9426C808.64 86.5864 808.09 86.4249 807.733 86.6197L805.504 87.8569C805.148 88.0516 804.987 88.6025 805.181 88.9587C805.307 89.223 805.537 89.3381 805.778 89.3728C805.939 89.396 806.111 89.3388 806.283 89.2816L808.512 88.0445C808.868 87.8497 809.03 87.2988 808.835 86.9426Z" fill="#6D86A4"/>
<path d="M807.481 77.5598C807.286 77.2036 806.735 77.0421 806.379 77.2369L804.15 78.4741C803.794 78.6688 803.632 79.2197 803.827 79.5759C803.953 79.8402 804.182 79.9553 804.424 79.99C804.584 80.0132 804.757 79.956 804.929 79.8988L807.158 78.6616C807.514 78.4669 807.676 77.916 807.481 77.5598Z" fill="#6D86A4"/>
<path d="M820.396 70.4809C820.201 70.1247 819.65 69.9632 819.294 70.158L808.688 76.0116C808.332 76.2063 808.171 76.7573 808.366 77.1135C808.503 77.2973 808.721 77.4928 808.962 77.5276C809.123 77.5507 809.295 77.4936 809.467 77.4364L820.073 71.5827C820.429 71.388 820.591 70.8371 820.396 70.4809Z" fill="#6D86A4"/>
</g>
<defs>
<clipPath id="clip0">
<rect width="59" height="59" fill="white" transform="translate(806.419 35) rotate(8.20398)"/>
</clipPath>
</defs>
</svg>
